<svg width="24" height="24" viewBox="0 0 24 24" fill="none" xmlns="http://www.w3.org/2000/svg">
<path d="M6.49314 9.779C6.50163 9.97387 6.5857 10.1578 6.72752 10.2917L11.4775 14.7917C11.6175 14.9276 11.8049 15.0036 12 15.0036C12.1951 15.0036 12.3825 14.9276 12.5224 14.7917L17.2724 10.2917C17.3447 10.2235 17.4027 10.1416 17.443 10.0507C17.4834 9.9599 17.5053 9.86196 17.5074 9.76259C17.5096 9.66323 17.492 9.56443 17.4556 9.47193C17.4193 9.37943 17.3649 9.29508 17.2957 9.22378C17.2264 9.15247 17.1437 9.09564 17.0523 9.05658C16.9609 9.01752 16.8627 8.99701 16.7633 8.99624C16.6639 8.99547 16.5654 9.01446 16.4734 9.05211C16.3814 9.08975 16.2978 9.1453 16.2275 9.21553L12 13.2077L7.77244 9.21553C7.66552 9.10879 7.52886 9.03682 7.38035 9.00906C7.23185 8.98129 7.07842 8.99902 6.94016 9.05992C6.8019 9.12082 6.68525 9.22205 6.60549 9.35036C6.52572 9.47866 6.48657 9.62807 6.49314 9.779Z" fill="currentColor"/>
</svg>
