<svg width="24" height="24" viewBox="0 0 24 24" fill="none" xmlns="http://www.w3.org/2000/svg">
<path d="M11.7393 21.0106C11.5441 21.0078 11.3577 20.9289 11.2197 20.7909L4.21973 13.7909C4.14775 13.7218 4.09028 13.639 4.0507 13.5474C4.01111 13.4558 3.9902 13.3572 3.98918 13.2575C3.98817 13.1577 4.00707 13.0587 4.04479 12.9663C4.08251 12.8739 4.13828 12.79 4.20884 12.7195C4.27939 12.6489 4.36332 12.5931 4.4557 12.5554C4.54809 12.5177 4.64706 12.4988 4.74684 12.4998C4.84662 12.5008 4.9452 12.5217 5.03679 12.5613C5.12839 12.6009 5.21117 12.6584 5.28028 12.7303L11 18.4501V3.76062C10.9986 3.66124 11.017 3.56256 11.054 3.47034C11.0911 3.37811 11.1461 3.29417 11.2159 3.22339C11.2857 3.15262 11.3688 3.09641 11.4605 3.05805C11.5522 3.01969 11.6506 2.99994 11.75 2.99994C11.8494 2.99994 11.9478 3.01969 12.0395 3.05805C12.1312 3.09641 12.2143 3.15262 12.2841 3.22339C12.3539 3.29417 12.4089 3.37811 12.446 3.47034C12.483 3.56256 12.5014 3.66124 12.5 3.76062V18.4501L18.2197 12.7303C18.2888 12.6584 18.3716 12.6009 18.4632 12.5613C18.5548 12.5217 18.6534 12.5008 18.7532 12.4998C18.8529 12.4988 18.9519 12.5177 19.0443 12.5554C19.1367 12.5931 19.2206 12.6489 19.2912 12.7195C19.3617 12.79 19.4175 12.8739 19.4552 12.9663C19.4929 13.0587 19.5118 13.1577 19.5108 13.2575C19.5098 13.3572 19.4889 13.4558 19.4493 13.5474C19.4097 13.639 19.3523 13.7218 19.2803 13.7909L12.2803 20.7909C12.2094 20.8618 12.125 20.9178 12.032 20.9556C11.9391 20.9933 11.8395 21.012 11.7393 21.0106Z" fill="#0C0D0D"/>
</svg>
