<svg width="24" height="24" viewBox="0 0 24 24" fill="none" xmlns="http://www.w3.org/2000/svg">
<path fill-rule="evenodd" clip-rule="evenodd" d="M8.25 2C8.52614 2 8.75 2.22386 8.75 2.5V4H15.25V2.5C15.25 2.22386 15.4739 2 15.75 2H16.25C16.5261 2 16.75 2.22386 16.75 2.5V4L18 4C20.2091 4 22 5.79086 22 8V18C22 20.2091 20.2091 22 18 22H6C3.79086 22 2 20.2091 2 18V8C2 5.79086 3.79086 4 6 4L7.25 4V2.5C7.25 2.22386 7.47386 2 7.75 2H8.25ZM15.25 5.6V7.49997C15.25 7.77611 15.4739 7.99997 15.75 7.99997H16.25C16.5261 7.99997 16.75 7.77611 16.75 7.49997V5.6H18C19.3255 5.6 20.4 6.67452 20.4 8V9.25H3.6V10.75H20.4V18C20.4 19.3255 19.3255 20.4 18 20.4H6C4.67452 20.4 3.6 19.3255 3.6 18V10.75V9.25V8C3.6 6.67452 4.67452 5.6 6 5.6H7.25V7.5C7.25 7.77614 7.47386 8 7.75 8H8.25C8.52614 8 8.75 7.77614 8.75 7.5V5.6H15.25Z" fill="#0C0D0D"/>
</svg>
