<svg width="24" height="24" viewBox="0 0 24 24" fill="none" xmlns="http://www.w3.org/2000/svg">
<path d="M18.7432 4.48925C18.5451 4.49393 18.3569 4.57678 18.2197 4.71972L12 10.9394L5.78027 4.71972C5.71036 4.64773 5.62672 4.5905 5.53429 4.55141C5.44186 4.51233 5.34253 4.49219 5.24218 4.49218C5.09292 4.49222 4.94707 4.53679 4.82328 4.62018C4.69949 4.70358 4.60339 4.82201 4.54729 4.96033C4.49119 5.09864 4.47763 5.25055 4.50835 5.39662C4.53906 5.54269 4.61266 5.67627 4.71972 5.78027L10.9394 12L4.71972 18.2197C4.64774 18.2888 4.59028 18.3716 4.55069 18.4632C4.5111 18.5548 4.49019 18.6534 4.48917 18.7532C4.48816 18.8529 4.50706 18.9519 4.54478 19.0443C4.5825 19.1367 4.63827 19.2206 4.70883 19.2912C4.77939 19.3617 4.86331 19.4175 4.9557 19.4552C5.04808 19.4929 5.14706 19.5118 5.24684 19.5108C5.34662 19.5098 5.44519 19.4889 5.53679 19.4493C5.62838 19.4097 5.71116 19.3522 5.78027 19.2803L12 13.0605L18.2197 19.2803C18.2888 19.3522 18.3716 19.4097 18.4632 19.4493C18.5548 19.4889 18.6534 19.5098 18.7532 19.5108C18.8529 19.5118 18.9519 19.4929 19.0443 19.4552C19.1367 19.4175 19.2206 19.3617 19.2912 19.2912C19.3617 19.2206 19.4175 19.1367 19.4552 19.0443C19.4929 18.9519 19.5118 18.8529 19.5108 18.7532C19.5098 18.6534 19.4889 18.5548 19.4493 18.4632C19.4097 18.3716 19.3522 18.2888 19.2803 18.2197L13.0605 12L19.2803 5.78027C19.3893 5.67559 19.4642 5.5404 19.4951 5.39242C19.526 5.24444 19.5115 5.09057 19.4534 4.951C19.3953 4.81143 19.2965 4.69266 19.1697 4.61026C19.043 4.52786 18.8943 4.48568 18.7432 4.48925Z" fill="#0C0D0D"/>
</svg>
