<svg width="24" height="24" viewBox="0 0 24 24" fill="none" xmlns="http://www.w3.org/2000/svg">
<path d="M21.8944 13.334C21.7982 13.2376 21.6775 13.1692 21.5454 13.1362C21.4133 13.1032 21.2746 13.1067 21.1444 13.1465C19.7143 13.5789 18.1937 13.6151 16.7446 13.2514C15.2955 12.8877 13.9723 12.1377 12.9159 11.0813C11.8595 10.0249 11.1094 8.7016 10.7457 7.25254C10.382 5.80347 10.4183 4.28288 10.8506 2.85279C10.8907 2.72248 10.8946 2.5837 10.8617 2.45137C10.8289 2.31903 10.7606 2.19816 10.6642 2.10175C10.5677 2.00534 10.4469 1.93703 10.3145 1.90418C10.1822 1.87132 10.0434 1.87517 9.91311 1.91529C7.93595 2.52096 6.20018 3.73478 4.9528 5.38404C3.86194 6.83234 3.19654 8.55614 3.03136 10.3618C2.86618 12.1674 3.20777 13.9833 4.01775 15.6055C4.82772 17.2277 6.074 18.5919 7.61655 19.5448C9.1591 20.4978 10.9368 21.0017 12.75 21C14.8653 21.0065 16.9244 20.3188 18.6112 19.0425C20.2605 17.7951 21.4743 16.0593 22.08 14.0822C22.1196 13.9523 22.1233 13.8142 22.0906 13.6824C22.0579 13.5507 21.9901 13.4303 21.8944 13.334ZM17.7094 17.8444C16.1208 19.0408 14.1535 19.6232 12.1696 19.4843C10.1857 19.3454 8.3188 18.4945 6.91249 17.0884C5.50618 15.6822 4.65516 13.8153 4.51609 11.8314C4.37701 9.84753 4.95925 7.88019 6.15561 6.29154C6.93505 5.26222 7.94274 4.42784 9.09936 3.85404C9.03347 4.31644 9.00027 4.78291 8.99999 5.24998C9.00272 7.835 10.0308 10.3134 11.8587 12.1413C13.6866 13.9691 16.165 14.9972 18.75 15C19.218 14.9998 19.6854 14.9666 20.1487 14.9006C19.5744 16.0574 18.7394 17.0651 17.7094 17.8444Z" fill="#0C0D0D"/>
</svg>
