<svg width="24" height="24" viewBox="0 0 24 24" fill="none" xmlns="http://www.w3.org/2000/svg">
<path fill-rule="evenodd" clip-rule="evenodd" d="M17.4646 10.5323C17.4646 14.3609 14.3609 17.4646 10.5323 17.4646C6.7037 17.4646 3.6 14.3609 3.6 10.5323C3.6 6.7037 6.7037 3.6 10.5323 3.6C14.3609 3.6 17.4646 6.7037 17.4646 10.5323ZM15.9711 17.1068C14.4946 18.3296 12.5993 19.0646 10.5323 19.0646C5.82005 19.0646 2 15.2446 2 10.5323C2 5.82005 5.82005 2 10.5323 2C15.2446 2 19.0646 5.82005 19.0646 10.5323C19.0646 12.5993 18.3296 14.4946 17.1068 15.9711L21.8543 20.7187C22.0496 20.9139 22.0496 21.2305 21.8543 21.4258L21.4258 21.8543C21.2305 22.0496 20.9139 22.0496 20.7187 21.8543L15.9711 17.1068Z" fill="#0C0D0D"/>
</svg>
