<svg width="24" height="24" viewBox="0 0 24 24" fill="none" xmlns="http://www.w3.org/2000/svg">
<path d="M11.9883 1.98929C11.7895 1.99239 11.6002 2.07426 11.4617 2.21689C11.3233 2.35953 11.2472 2.55128 11.25 2.75003V4.25003C11.2486 4.34941 11.267 4.44809 11.304 4.54031C11.3411 4.63254 11.3961 4.71648 11.4659 4.78726C11.5357 4.85803 11.6188 4.91424 11.7105 4.9526C11.8022 4.99096 11.9006 5.01071 12 5.01071C12.0994 5.01071 12.1978 4.99096 12.2895 4.9526C12.3812 4.91424 12.4643 4.85803 12.5341 4.78726C12.6039 4.71648 12.6589 4.63254 12.696 4.54031C12.733 4.44809 12.7514 4.34941 12.75 4.25003V2.75003C12.7514 2.64965 12.7327 2.55 12.6949 2.45698C12.6571 2.36397 12.6011 2.27949 12.53 2.20855C12.459 2.13761 12.3745 2.08164 12.2814 2.04398C12.1883 2.00632 12.0887 1.98772 11.9883 1.98929ZM5.45117 4.70218C5.30191 4.70221 5.15606 4.74678 5.03227 4.83018C4.90848 4.91358 4.81238 5.03201 4.75628 5.17032C4.70018 5.30864 4.68662 5.46055 4.71734 5.60662C4.74805 5.75268 4.82165 5.88626 4.92871 5.99026L5.98926 7.05081C6.13003 7.19158 6.32095 7.27066 6.52002 7.27066C6.71909 7.27066 6.91001 7.19158 7.05078 7.05081C7.19155 6.91004 7.27063 6.71912 7.27063 6.52005C7.27063 6.32098 7.19155 6.13005 7.05078 5.98929L5.99024 4.92874C5.92013 4.85681 5.83629 4.79969 5.74369 4.76077C5.65109 4.72185 5.55162 4.70193 5.45117 4.70218ZM18.5254 4.70218C18.3306 4.70786 18.1457 4.78911 18.0098 4.92874L16.9492 5.98929C16.8085 6.13005 16.7294 6.32098 16.7294 6.52005C16.7294 6.71912 16.8085 6.91004 16.9492 7.05081C17.09 7.19158 17.2809 7.27066 17.48 7.27066C17.6791 7.27066 17.87 7.19158 18.0107 7.05081L19.0713 5.99026C19.1799 5.88489 19.2541 5.74913 19.2842 5.6008C19.3142 5.45248 19.2987 5.29853 19.2396 5.15919C19.1806 5.01986 19.0808 4.90164 18.9533 4.82007C18.8258 4.73851 18.6767 4.69741 18.5254 4.70218ZM12 6.50003C8.97132 6.50003 6.5 8.97135 6.5 12C6.5 15.0287 8.97132 17.5 12 17.5C15.0287 17.5 17.5 15.0287 17.5 12C17.5 8.97135 15.0287 6.50003 12 6.50003ZM12 8.00003C14.218 8.00003 16 9.78201 16 12C16 14.2181 14.218 16 12 16C9.78198 16 8 14.2181 8 12C8 9.78201 9.78198 8.00003 12 8.00003ZM2.75 11.25C2.65062 11.2486 2.55194 11.267 2.45972 11.304C2.36749 11.3411 2.28355 11.3961 2.21277 11.4659C2.142 11.5357 2.08579 11.6188 2.04743 11.7105C2.00907 11.8022 1.98932 11.9006 1.98932 12C1.98932 12.0994 2.00907 12.1978 2.04743 12.2895C2.08579 12.3812 2.142 12.4644 2.21277 12.5341C2.28355 12.6039 2.36749 12.659 2.45972 12.696C2.55194 12.7331 2.65062 12.7514 2.75 12.75H4.25C4.34938 12.7514 4.44806 12.7331 4.54028 12.696C4.63251 12.659 4.71645 12.6039 4.78723 12.5341C4.858 12.4644 4.91421 12.3812 4.95257 12.2895C4.99093 12.1978 5.01068 12.0994 5.01068 12C5.01068 11.9006 4.99093 11.8022 4.95257 11.7105C4.91421 11.6188 4.858 11.5357 4.78723 11.4659C4.71645 11.3961 4.63251 11.3411 4.54028 11.304C4.44806 11.267 4.34938 11.2486 4.25 11.25H2.75ZM19.75 11.25C19.6506 11.2486 19.5519 11.267 19.4597 11.304C19.3675 11.3411 19.2836 11.3961 19.2128 11.4659C19.142 11.5357 19.0858 11.6188 19.0474 11.7105C19.0091 11.8022 18.9893 11.9006 18.9893 12C18.9893 12.0994 19.0091 12.1978 19.0474 12.2895C19.0858 12.3812 19.142 12.4644 19.2128 12.5341C19.2836 12.6039 19.3675 12.659 19.4597 12.696C19.5519 12.7331 19.6506 12.7514 19.75 12.75H21.25C21.3494 12.7514 21.4481 12.7331 21.5403 12.696C21.6325 12.659 21.7164 12.6039 21.7872 12.5341C21.858 12.4644 21.9142 12.3812 21.9526 12.2895C21.9909 12.1978 22.0107 12.0994 22.0107 12C22.0107 11.9006 21.9909 11.8022 21.9526 11.7105C21.9142 11.6188 21.858 11.5357 21.7872 11.4659C21.7164 11.3961 21.6325 11.3411 21.5403 11.304C21.4481 11.267 21.3494 11.2486 21.25 11.25H19.75ZM6.50488 16.7227C6.3101 16.7284 6.12518 16.8096 5.98926 16.9492L4.92871 18.0098C4.85899 18.0795 4.80367 18.1622 4.76593 18.2533C4.72819 18.3444 4.70876 18.442 4.70875 18.5406C4.70874 18.6392 4.72815 18.7368 4.76587 18.8279C4.80359 18.919 4.85889 19.0017 4.9286 19.0714C4.99831 19.1411 5.08107 19.1964 5.17215 19.2342C5.26323 19.2719 5.36086 19.2913 5.45944 19.2913C5.55803 19.2913 5.65564 19.2718 5.74672 19.2341C5.83779 19.1964 5.92054 19.141 5.99024 19.0713L7.05078 18.0108C7.15941 17.9054 7.23362 17.7696 7.26366 17.6213C7.29371 17.473 7.27819 17.319 7.21914 17.1797C7.16008 17.0404 7.06026 16.9221 6.93279 16.8406C6.80531 16.759 6.65615 16.7179 6.50488 16.7227ZM17.4717 16.7227C17.3224 16.7227 17.1766 16.7673 17.0528 16.8507C16.929 16.9341 16.8329 17.0525 16.7768 17.1908C16.7207 17.3291 16.7071 17.4811 16.7378 17.6271C16.7686 17.7732 16.8422 17.9068 16.9492 18.0108L18.0098 19.0713C18.0795 19.141 18.1622 19.1963 18.2533 19.234C18.3443 19.2718 18.442 19.2912 18.5405 19.2912C18.6391 19.2912 18.7367 19.2718 18.8278 19.234C18.9188 19.1963 19.0016 19.141 19.0713 19.0713C19.141 19.0016 19.1963 18.9189 19.234 18.8278C19.2717 18.7367 19.2911 18.6391 19.2911 18.5406C19.2911 18.442 19.2717 18.3444 19.234 18.2533C19.1963 18.1622 19.141 18.0795 19.0713 18.0098L18.0107 16.9492C17.9406 16.8773 17.8568 16.8202 17.7642 16.7813C17.6716 16.7424 17.5721 16.7224 17.4717 16.7227ZM11.9883 18.9893C11.7895 18.9924 11.6002 19.0743 11.4617 19.2169C11.3233 19.3595 11.2472 19.5513 11.25 19.75V21.25C11.2486 21.3494 11.267 21.4481 11.304 21.5403C11.3411 21.6325 11.3961 21.7165 11.4659 21.7873C11.5357 21.858 11.6188 21.9142 11.7105 21.9526C11.8022 21.991 11.9006 22.0107 12 22.0107C12.0994 22.0107 12.1978 21.991 12.2895 21.9526C12.3812 21.9142 12.4643 21.858 12.5341 21.7873C12.6039 21.7165 12.6589 21.6325 12.696 21.5403C12.733 21.4481 12.7514 21.3494 12.75 21.25V19.75C12.7514 19.6496 12.7327 19.55 12.6949 19.457C12.6571 19.364 12.6011 19.2795 12.53 19.2085C12.459 19.1376 12.3745 19.0816 12.2814 19.044C12.1883 19.0063 12.0887 18.9877 11.9883 18.9893Z" fill="#0C0D0D"/>
</svg>
